<mxfile host="app.diagrams.net" modified="2021-10-22T03:28:02.068Z" agent="5.0 (Macintosh; Intel Mac OS X 10_15_7) AppleWebKit/537.36 (KHTML, like Gecko) Chrome/94.0.4606.81 Safari/537.36" etag="UYbVy9R1i9hyvix3KegJ" version="15.5.8" type="github">
  <diagram id="qZLw-oVgylJYw9EMn1Zd" name="第 1 页">
    <mxGraphModel dx="1393" dy="1126" grid="1" gridSize="10" guides="1" tooltips="1" connect="1" arrows="1" fold="1" page="1" pageScale="1" pageWidth="827" pageHeight="1169" math="0" shadow="0">
      <root>
        <mxCell id="0" />
        <mxCell id="1" parent="0" />
        <mxCell id="M-YdBnF9Lk4rPYYKG8BE-11" style="edgeStyle=orthogonalEdgeStyle;rounded=0;orthogonalLoop=1;jettySize=auto;html=1;" edge="1" parent="1">
          <mxGeometry relative="1" as="geometry">
            <mxPoint x="260" y="265" as="targetPoint" />
            <mxPoint x="170" y="265" as="sourcePoint" />
          </mxGeometry>
        </mxCell>
        <mxCell id="M-YdBnF9Lk4rPYYKG8BE-12" style="edgeStyle=orthogonalEdgeStyle;rounded=0;orthogonalLoop=1;jettySize=auto;html=1;" edge="1" parent="1">
          <mxGeometry relative="1" as="geometry">
            <mxPoint x="490" y="270" as="targetPoint" />
            <mxPoint x="390" y="270" as="sourcePoint" />
          </mxGeometry>
        </mxCell>
        <mxCell id="M-YdBnF9Lk4rPYYKG8BE-7" value="Ding Talk" style="shape=callout;whiteSpace=wrap;html=1;perimeter=calloutPerimeter;strokeWidth=2;" vertex="1" parent="1">
          <mxGeometry x="500" y="240" width="120" height="80" as="geometry" />
        </mxCell>
        <mxCell id="M-YdBnF9Lk4rPYYKG8BE-16" style="edgeStyle=orthogonalEdgeStyle;rounded=0;orthogonalLoop=1;jettySize=auto;html=1;" edge="1" parent="1">
          <mxGeometry relative="1" as="geometry">
            <mxPoint x="250" y="494" as="targetPoint" />
            <mxPoint x="190" y="494" as="sourcePoint" />
          </mxGeometry>
        </mxCell>
        <mxCell id="M-YdBnF9Lk4rPYYKG8BE-17" style="edgeStyle=orthogonalEdgeStyle;rounded=0;orthogonalLoop=1;jettySize=auto;html=1;" edge="1" parent="1">
          <mxGeometry relative="1" as="geometry">
            <mxPoint x="480" y="490" as="targetPoint" />
            <mxPoint x="390" y="490" as="sourcePoint" />
          </mxGeometry>
        </mxCell>
        <mxCell id="M-YdBnF9Lk4rPYYKG8BE-15" value="Ding Talk" style="shape=callout;whiteSpace=wrap;html=1;perimeter=calloutPerimeter;strokeWidth=2;" vertex="1" parent="1">
          <mxGeometry x="490" y="470" width="120" height="80" as="geometry" />
        </mxCell>
        <mxCell id="M-YdBnF9Lk4rPYYKG8BE-18" value="" style="points=[];aspect=fixed;html=1;align=center;shadow=0;dashed=0;image;image=img/lib/allied_telesis/computer_and_terminals/Personal_Computer.svg;fillColor=#666666;" vertex="1" parent="1">
          <mxGeometry x="70.9" y="230" width="45.6" height="61.800000000000004" as="geometry" />
        </mxCell>
        <mxCell id="M-YdBnF9Lk4rPYYKG8BE-19" value="" style="points=[];aspect=fixed;html=1;align=center;shadow=0;dashed=0;image;image=img/lib/allied_telesis/computer_and_terminals/Personal_Computer_Wireless.svg;fillColor=#666666;" vertex="1" parent="1">
          <mxGeometry x="80" y="465.8" width="63" height="64.2" as="geometry" />
        </mxCell>
        <mxCell id="M-YdBnF9Lk4rPYYKG8BE-20" value="" style="points=[];aspect=fixed;html=1;align=center;shadow=0;dashed=0;image;image=img/lib/allied_telesis/computer_and_terminals/VOIP_IP_phone.svg;fillColor=#666666;" vertex="1" parent="1">
          <mxGeometry x="116.5" y="264.4" width="30" height="45.6" as="geometry" />
        </mxCell>
        <mxCell id="M-YdBnF9Lk4rPYYKG8BE-21" value="用户" style="text;html=1;strokeColor=none;fillColor=none;align=center;verticalAlign=middle;whiteSpace=wrap;rounded=0;" vertex="1" parent="1">
          <mxGeometry x="81.5" y="320" width="60" height="30" as="geometry" />
        </mxCell>
        <mxCell id="M-YdBnF9Lk4rPYYKG8BE-22" value="天画" style="text;html=1;strokeColor=none;fillColor=none;align=center;verticalAlign=middle;whiteSpace=wrap;rounded=0;" vertex="1" parent="1">
          <mxGeometry x="83" y="540" width="60" height="30" as="geometry" />
        </mxCell>
        <mxCell id="M-YdBnF9Lk4rPYYKG8BE-23" value="iTrace" style="html=1;verticalLabelPosition=bottom;align=center;labelBackgroundColor=#ffffff;verticalAlign=top;strokeWidth=2;strokeColor=#666666;shadow=0;dashed=0;shape=mxgraph.ios7.icons.cloud;fillColor=#FFFFFF;" vertex="1" parent="1">
          <mxGeometry x="280" y="235.9" width="110" height="50" as="geometry" />
        </mxCell>
        <mxCell id="M-YdBnF9Lk4rPYYKG8BE-25" value="gtp-inspection" style="html=1;verticalLabelPosition=bottom;align=center;labelBackgroundColor=#ffffff;verticalAlign=top;strokeWidth=2;strokeColor=#666666;shadow=0;dashed=0;shape=mxgraph.ios7.icons.cloud;fillColor=#FFFFFF;" vertex="1" parent="1">
          <mxGeometry x="280" y="465.8" width="110" height="50" as="geometry" />
        </mxCell>
      </root>
    </mxGraphModel>
  </diagram>
</mxfile>
